<?xml version="1.0" ?><!DOCTYPE svg  PUBLIC '-//W3C//DTD SVG 1.1//EN'  'http://www.w3.org/Graphics/SVG/1.1/DTD/svg11.dtd'><svg height="100%" style="fill-rule:evenodd;clip-rule:evenodd;stroke-linejoin:round;stroke-miterlimit:2;" version="1.1" viewBox="0 0 32 32" width="100%" xml:space="preserve" xmlns="http://www.w3.org/2000/svg" xmlns:serif="http://www.serif.com/" xmlns:xlink="http://www.w3.org/1999/xlink"><path d="M13.794,7l-5.246,6.012l-2.548,0c-0.552,0 -1,0.448 -1,1l-0,4c-0,0.553 0.448,1 1,1l2,0l-0,5.986l-2,0c-0.552,0 -1,0.448 -1,1l-0,4c-0,0.553 0.448,1 1,1l5.99,0c0.553,0 1,-0.447 1,-1l0,-4c0,-0.552 -0.447,-1 -1,-1l-1.99,0l-0,-5.986l1.99,0c0.553,0 1,-0.447 1,-1l0,-4c0,-0.552 -0.447,-1 -1,-1l-0.787,0l4.792,-5.492l4.808,5.492l-0.793,0c-0.553,0 -1,0.448 -1,1l-0,4c-0,0.553 0.447,1 1,1l1.995,0l-0,5.986l-2.005,0c-0.552,0 -1,0.448 -1,1l0,4c0,0.553 0.448,1 1,1l5.99,0c0.553,0 1,-0.447 1,-1l0,-4c0,-0.552 -0.447,-1 -1,-1l-1.985,0l-0,-5.986l1.995,0c0.552,0 1,-0.447 1,-1l-0,-4c-0,-0.552 -0.448,-1 -1,-1l-2.539,0l-5.262,-6.012l0.791,-0c0.553,-0 1,-0.448 1,-1l0,-4c0,-0.552 -0.447,-1 -1,-1l-5.99,0c-0.552,0 -1,0.448 -1,1l-0,4c-0,0.552 0.448,1 1,1l0.794,-0Zm11.196,19.998l0,2c0,0 -3.99,0 -3.99,0c0,0 0,-2 0,-2l3.99,0Zm-14,0l0,2c0,0 -3.99,0 -3.99,0c-0,0 -0,-2 -0,-2l3.99,0Zm0,-11.986l0,2c0,0 -3.99,0 -3.99,0c-0,0 -0,-2 -0,-2l3.99,0Zm14.01,0l-0,2c-0,0 -3.99,0 -3.99,0c-0,0 -0,-2 -0,-2l3.99,0Zm-7.01,-12.012l0,2c0,-0 -3.99,-0 -3.99,-0c-0,0 -0,-2 -0,-2l3.99,-0Z"/><g id="Icon"/></svg>